<?xml version="1.0" encoding="UTF-8"?>
<!DOCTYPE svg PUBLIC "-//W3C//DTD SVG 1.1//EN" "http://www.w3.org/Graphics/SVG/1.1/DTD/svg11.dtd">
<!-- Creator: CorelDRAW 2020 (64-Bit) -->
<svg xmlns="http://www.w3.org/2000/svg" xml:space="preserve" width="77.611mm" height="80.786mm" version="1.1" style="shape-rendering:geometricPrecision; text-rendering:geometricPrecision; image-rendering:optimizeQuality; fill-rule:evenodd; clip-rule:evenodd"
viewBox="0 0 2846.01 2962.43"
 xmlns:xlink="http://www.w3.org/1999/xlink"
 xmlns:xodm="http://www.corel.com/coreldraw/odm/2003">
 <defs>
  <style type="text/css">
   <![CDATA[
    .fil0 {fill:#332C2B}
   ]]>
  </style>
 </defs>
 <g id="Layer_x0020_1">
  <metadata id="CorelCorpID_0Corel-Layer"/>
  <g id="_2496206657472">
   <path class="fil0" d="M2718.72 2600.21c93.56,-419.46 -498.8,-546.74 -589.12,-160.14 -100.66,430.86 502.91,546.65 589.12,160.14z"/>
   <path class="fil0" d="M340.21 137.79c-391.87,122.97 -211.52,725.87 169.65,605.38 140.45,-44.4 253.19,-190.81 206.44,-385.64 -34.54,-143.91 -188.87,-278.48 -376.09,-219.73z"/>
   <path class="fil0" d="M2339.62 137.51c-400.8,138.95 -199.4,723.53 174.83,604.8 138.07,-43.8 244.49,-197.29 202.62,-380.43 -33.61,-147.01 -196.6,-287.07 -377.45,-224.37z"/>
   <path class="fil0" d="M123.5 2574.34c19.9,155.5 171.15,292.06 354.34,259.77 147.78,-26.05 271.16,-177.67 244.42,-361.88 -56.62,-390.05 -654.22,-331.36 -598.76,102.11z"/>
   <path class="fil0" d="M-0 1443.73l0 209c32.07,81.48 59.38,435.41 181.11,567.69 118.87,-82.05 196.8,-109.49 382.88,-69.91 -46.93,-327.69 -437.05,-487.77 -511.83,-976.73 -43.05,70.96 -26.28,194.92 -52.16,269.95z"/>
   <path class="fil0" d="M2846.01 1518.7l0 -209c-31.66,-80.44 -59.23,-434.41 -181.11,-566.93 -126.21,81.76 -186.58,110.71 -382.88,69.15 47.69,326.81 437.4,490.1 511.83,976.73 43.03,-70.94 26.22,-194.74 52.16,-269.95z"/>
   <path class="fil0" d="M1369.3 2962.43l228.46 0c65.12,-25.62 204.53,-38.79 296.99,-70.88 85.22,-29.57 177.22,-85.28 242.86,-104.23l-49.22 -88.87c-60.66,-116.45 -50.48,-204.19 -20.06,-321.96 -183.03,25.91 -345.61,200.42 -450.05,289.72 -145.82,124.7 -290.26,199.26 -482.79,243.15 60.52,40.95 178.38,32.76 233.82,53.06z"/>
   <path class="fil0" d="M1476.7 0l-186.72 0c-61.97,21.72 -213.94,32.17 -309.57,61.36 -103.26,31.53 -194.74,91.43 -272.01,113.75 42.54,110.52 136.76,149.54 69.28,410.83 183.03,-25.91 345.61,-200.42 450.05,-289.72l212.28 -149.14c83.36,-45.93 163.34,-69.58 270.51,-94.01 -32.83,-22.21 -66.27,-25.75 -111.04,-33.05 -38.87,-6.34 -93.69,-9.36 -122.78,-20.01z"/>
   <path class="fil0" d="M1551.64 853c-161.69,-4.05 -462.11,-56.89 -493.83,117.56 -25.36,139.49 15.21,161.15 77.64,222.47 52.98,52.03 89.22,96.93 151.87,146.04l9.03 -237.81 253.59 0.42 0.58 108.04c28.51,-17.64 9.15,-3.34 33.92,-25.93l80.43 -87.98c30.75,-32.7 90.05,-87.21 108.33,-125.58 -71.2,-64.81 -151.54,-178.47 -221.22,-223.53l-0.33 106.3z"/>
   <path class="fil0" d="M1072.92 1979.27c1.63,1.43 41.81,53.33 52.7,64.47l168.55 171.99 0.26 -106.3c161.58,4.05 462.09,56.89 493.75,-117.55 26.59,-146.49 -19.65,-165.22 -84.19,-228.87 -50.77,-50.06 -84.05,-91.42 -151.37,-139.72l-1.92 237.46 -255.34 0.43 0.08 -108.47c-25.44,15.76 -7.02,3.15 -26.3,19.34l-196.24 207.22z"/>
   <path class="fil0" d="M948.8 1111.34c-42.39,20.32 -219.93,217.78 -227.52,234.09l96.49 -0.69c18.75,252.64 -83.47,521.05 191.27,521.05 91.55,0 269.18,-238.29 273.45,-246.95l-221.78 0.08 0.63 -275.35 93.27 -0.48c-51.3,-76.9 -148.24,-158.35 -205.8,-231.76z"/>
   <path class="fil0" d="M1836.97 1096.64c-72.27,0 -120.31,69.31 -153.54,107.95 -25.92,30.15 -106.14,111.08 -119.91,139l221.78 -0.08 -0.08 275.02 -96.67 4.24c20.92,13.62 188.48,200.37 208.66,228.32 40.55,-19.44 36.31,-21.93 66.72,-55.63l160.79 -178.46 -96.49 0.69c-18.8,-253.33 84.22,-521.05 -191.27,-521.05z"/>
   <path class="fil0" d="M218.81 1425.22c55.18,-63.82 -15.39,-72.17 184.82,-310.66 24.1,-28.71 33.97,-32.61 55.57,-60.36 66.67,-85.67 102.11,-136.64 117.52,-247.84 -223.96,42.31 -211.47,40.26 -382.67,-54.03 -65.23,76.82 -99.92,227.09 -91.73,347.54 11.21,165.11 69.11,211.25 116.49,325.34z"/>
   <path class="fil0" d="M2651.96 2209.71c65.65,-75.58 99.9,-226.56 91.73,-347.16 -11.19,-165.11 -69.04,-211.11 -116.49,-325.34l-20.29 34.65c-20.53,46.76 -16.22,66.28 -56.9,137.67 -30.87,54.17 -70.76,94.49 -107.64,138.34 -27.79,33.04 -35.8,33.76 -61.11,67.84 -61.64,83.01 -96.15,126.94 -111.97,240.35 217.33,-41.06 218.65,-36.35 382.67,53.64z"/>
   <path class="fil0" d="M1477.05 235.16c106.05,61.35 104.42,5.38 295.38,178.8 87.7,79.64 133.45,155.55 299.38,187.99 -47.96,-246.18 -30.95,-212.33 55.62,-411.56 -171.91,-52.58 -358.09,-185.24 -650.39,44.77z"/>
   <path class="fil0" d="M774.19 2360.49c60.79,195.41 16.98,258.81 -55.62,411.56 202.17,61.7 341.14,180.85 650.39,-44.77 -49.97,-28.91 -107.76,-35.72 -166.9,-74.78 -41.54,-27.43 -96.75,-74.79 -128.55,-103.94 -88.31,-80.95 -133.01,-154.85 -299.31,-188.07z"/>
  </g>
 </g>
</svg>
