<?xml version="1.0" encoding="UTF-8" standalone="no"?>
<!-- Created with Inkscape (http://www.inkscape.org/) -->

<svg
   width="100mm"
   height="100mm"
   viewBox="0 0 100 100"
   version="1.1"
   id="svg5"
   xmlns="http://www.w3.org/2000/svg"
   xmlns:svg="http://www.w3.org/2000/svg">
  <defs
     id="defs2" />
  <g
     id="layer1">
    <circle
       id="path1279"
       cx="50.196037"
       cy="50.330597"
       r="49.22049"
       style="fill:#ffffff;stroke-width:0.414465" />
    <path
       style="fill:#2974b5;stroke:none;stroke-width:0.0643772"
       d="m 48.532856,3.9418676 c -1.018577,0.128813 -2.066252,0.07919 -3.09011,0.176716 -2.239169,0.213084 -4.510143,0.570376 -6.695235,1.114045 C 27.132434,8.1228416 16.782113,15.321322 10.279815,25.416515 5.6968605,32.531812 3.0246245,40.908966 2.6989395,49.364857 2.0724205,65.632993 10.484405,82.122588 24.391378,90.755581 c 4.313148,2.67745 8.963825,4.80512 13.90549,6.025075 5.753528,1.420162 11.763276,1.791618 17.639374,1.04162 15.44282,-1.970586 29.16612,-11.763655 36.16264,-25.667865 3.1545,-6.268416 4.80191,-13.286177 4.9738,-20.278838 0.50214,-20.510345 -13.36537,-39.614492 -32.89615,-45.7405744 -3.69912,-1.160207 -7.47034,-1.832811 -11.3304,-2.097469 -1.38411,-0.09494 -2.938821,-0.269483 -4.313276,-0.09561 m -1.095379,3.468963 c 1.876018,-0.189981 3.859094,-0.02507 5.730545,0.103038 3.63345,0.24882 7.23987,0.944283 10.68662,2.139127 5.61757,1.9471494 10.8244,4.8980204 15.25742,8.8859964 3.83302,3.448301 6.99394,7.562273 9.4435,12.092043 7.99437,14.781094 6.26713,33.633271 -3.88452,46.931038 -3.4326,4.495465 -7.72077,8.258964 -12.5761,11.150142 -5.1592,3.07273 -11.13599,5.161769 -17.12436,5.770133 C 49.176951,95.070814 43.331109,94.671674 37.717473,93.057738 22.292162,88.624073 9.9418975,75.372658 6.9747495,59.53649 5.7379325,52.935892 6.0161055,46.345587 7.6227065,39.837046 8.8602305,34.823799 11.210838,29.99878 14.201034,25.8028 17.494512,21.18135 21.651996,17.192209 26.451449,14.153929 30.804705,11.39813 35.690105,9.3499612 40.743205,8.3105936 42.96068,7.8544786 45.191676,7.6382996 47.437477,7.4108526 M 40.614451,20.137601 v 11.137267 2.768221 c 0,0.261497 0.09894,0.789006 -0.103193,0.991221 -0.19384,0.193774 -0.677058,0.103148 -0.926841,0.103148 h -2.575091 c -2.659619,0 -5.593035,-0.34924 -8.175914,0.356582 -1.211259,0.331028 -2.56286,1.062804 -3.059531,2.282892 -0.313194,0.769363 -0.159333,1.759753 -0.159333,2.575089 v 5.085806 h 11.137267 2.768225 l 0.991218,0.103148 0.103193,0.991221 v 2.768221 11.137267 h 2.188828 c 0.225513,0 0.622078,-0.07276 0.798085,0.103037 0.175942,0.176395 0.103193,0.572961 0.103193,0.798279 v 2.060069 c 0,2.602773 -0.299032,5.420572 0.226157,7.982784 1.304155,6.361761 5.955286,11.841559 12.649298,12.663659 5.65812,0.695264 11.13534,-2.493334 13.88747,-7.384722 0.64956,-1.154927 1.16072,-2.393548 1.51479,-3.669503 0.16545,-0.594843 0.16352,-1.582393 0.61287,-2.025953 2.06008,-2.03304 4.97315,-3.460922 5.83709,-6.471851 0.1809,-0.62896 0.16481,-1.284317 0.16481,-1.931312 0,-0.681754 -0.0953,-1.289474 -0.33154,-1.931322 -0.34571,-0.937329 -1.01652,-1.862436 -1.92166,-2.329808 -1.21416,-0.627041 -2.91565,-0.617381 -4.12015,0.03283 -0.48863,0.263948 -0.92382,0.940545 -1.48068,1.002357 -0.83819,0.09339 -1.303,-0.745496 -1.99569,-1.089268 -1.41051,-0.70042 -3.44419,-0.519523 -4.63517,0.528541 -1.68025,1.478746 -2.04591,4.29396 -1.19549,6.297375 0.52597,1.239265 1.40794,2.217809 2.35428,3.154494 0.59485,0.588411 1.22253,1.162647 1.87789,1.682825 0.27103,0.215014 0.72875,0.418449 0.85042,0.76415 0.0979,0.278756 -0.0785,0.692702 -0.15386,0.965024 -0.22918,0.825951 -0.54399,1.621656 -0.93798,2.381958 -1.70213,3.288387 -5.05361,5.753397 -8.84672,5.718626 -6.28902,-0.0579 -10.042855,-6.104245 -10.042855,-11.834472 v -5.472068 c 0,-0.413302 -0.201116,-1.588183 0.103192,-1.892692 0.176008,-0.175751 0.572573,-0.103037 0.798086,-0.103037 H 50.91481 V 49.300417 46.532196 l 0.103004,-0.991221 0.991408,-0.103148 h 2.8326 11.13727 v -7.532148 -1.931312 l -0.0663,-0.733706 -0.96373,-0.103259 H 62.180832 50.914809 V 28.37779 c 0,-1.365317 0.105577,-2.771826 -0.123603,-4.12015 -0.245279,-1.443654 -0.897677,-3.117727 -2.258356,-3.841839 -0.795704,-0.423406 -1.767156,-0.2783 -2.639467,-0.2783 h -5.278938 m -9.270327,4.410739 c -2.895047,0.584163 -3.171483,4.861963 -0.193131,5.565223 0.456433,0.107807 0.959284,0.0925 1.416299,-0.0055 3.413476,-0.730045 2.205309,-6.251813 -1.223168,-5.56001 m 27.875354,0.0055 c -0.47446,0.109914 -0.9045,0.28693 -1.2869,0.593757 -2.39483,1.923659 -0.30901,5.659143 2.57445,4.946877 3.40878,-0.842188 2.11351,-6.328475 -1.28755,-5.540634 m 11.00852,35.838513 c 4.73945,-0.560084 6.87485,6.038585 3.09011,8.658095 -0.66695,0.461593 -1.45107,0.736478 -2.25321,0.832406 -4.36799,0.522739 -7.00167,-5.101899 -3.86006,-8.15146 0.8427,-0.818231 1.88046,-1.204493 3.02316,-1.339041 m -0.0644,2.908569 c -2.39033,0.450636 -1.60557,4.079589 0.77253,3.68238 2.4238,-0.404297 1.63582,-4.136887 -0.77253,-3.68238 z"
       id="path1136" />
  </g>
</svg>
